ffmpeg started on 2016-12-06 at 20:07:44
Report written to "Output/x264/results/ffmpeg/sintelmedium5000k.log"
Command line:
Tools/ffmpeg/ffmpeg -benchmark -y -i Input/y4m/sintel.y4m -c:v libx264 -preset medium -b:v 5000k -an Output/x264/encoded/sintelmedium5000k.mkv
ffmpeg version N-82227-gdb23fde Copyright (c) 2000-2016 the FFmpeg developers
  built with gcc 5.4.0 (Ubuntu 5.4.0-6ubuntu1~16.04.2) 20160609
  configuration: --prefix=/home/jaroslav/ffmpeg_build --pkg-config-flags=--static --extra-cflags=-I/home/jaroslav/ffmpeg_build/include --extra-ldflags=-L/home/jaroslav/ffmpeg_build/lib --bindir=/home/jaroslav/bin --enable-gpl --enable-libass --enable-libfdk-aac --enable-libfreetype --enable-libmp3lame --enable-libopus --enable-libtheora --enable-libvorbis --enable-libvpx --enable-libx264 --enable-libx265 --enable-nvenc --enable-libmfx --enable-libxvid --enable-libgsm --enable-libopencore-amrnb --enable-version3 --enable-nonfree
  libavutil      55. 35.100 / 55. 35.100
  libavcodec     57. 66.101 / 57. 66.101
  libavformat    57. 57.100 / 57. 57.100
  libavdevice    57.  2.100 / 57.  2.100
  libavfilter     6. 66.100 /  6. 66.100
  libswscale      4.  3.100 /  4.  3.100
  libswresample   2.  4.100 /  2.  4.100
  libpostproc    54.  2.100 / 54.  2.100
Input #0, yuv4mpegpipe, from 'Input/y4m/sintel.y4m':
  Duration: 00:00:20.83, start: 0.000000, bitrate: 2057307 kb/s
    Stream #0:0: Video: rawvideo (I420 / 0x30323449), yuv420p(progressive), 4096x1744, SAR 1:1 DAR 256:109, 24 fps, 24 tbr, 24 tbn, 24 tbc
[libx264 @ 0x409a1c0] using SAR=1/1
[libx264 @ 0x409a1c0] using cpu capabilities: MMX2 SSE2Fast SSSE3 SSE4.2 AVX FMA3 AVX2 LZCNT BMI2
[libx264 @ 0x409a1c0] profile High, level 5.1
[libx264 @ 0x409a1c0] 264 - core 148 - H.264/MPEG-4 AVC codec - Copyleft 2003-2016 - http://www.videolan.org/x264.html - options: cabac=1 ref=3 deblock=1:0:0 analyse=0x3:0x113 me=hex subme=7 psy=1 psy_rd=1.00:0.00 mixed_ref=1 me_range=16 chroma_me=1 trellis=1 8x8dct=1 cqm=0 deadzone=21,11 fast_pskip=1 chroma_qp_offset=-2 threads=6 lookahead_threads=1 sliced_threads=0 nr=0 decimate=1 interlaced=0 bluray_compat=0 constrained_intra=0 bframes=3 b_pyramid=2 b_adapt=1 b_bias=0 direct=1 weightb=1 open_gop=0 weightp=2 keyint=250 keyint_min=24 scenecut=40 intra_refresh=0 rc_lookahead=40 rc=abr mbtree=1 bitrate=5000 ratetol=1.0 qcomp=0.60 qpmin=0 qpmax=69 qpstep=4 ip_ratio=1.40 aq=1:1.00
Output #0, matroska, to 'Output/x264/encoded/sintelmedium5000k.mkv':
  Metadata:
    encoder         : Lavf57.57.100
    Stream #0:0: Video: h264 (libx264) (H264 / 0x34363248), yuv420p, 4096x1744 [SAR 1:1 DAR 256:109], q=-1--1, 5000 kb/s, 24 fps, 1k tbn, 24 tbc
    Metadata:
      encoder         : Lavc57.66.101 libx264
    Side data:
      cpb: bitrate max/min/avg: 0/0/5000000 buffer size: 0 vbv_delay: -1
Stream mapping:
  Stream #0:0 -> #0:0 (rawvideo (native) -> h264 (libx264))
Press [q] to stop, [?] for help
frame=    8 fps=0.0 q=0.0 size=       0kB time=00:00:00.00 bitrate=N/A speed=   0x    frame=   17 fps= 14 q=0.0 size=       0kB time=00:00:00.00 bitrate=N/A speed=   0x    frame=   26 fps= 15 q=0.0 size=       0kB time=00:00:00.00 bitrate=N/A speed=   0x    frame=   35 fps= 16 q=0.0 size=       0kB time=00:00:00.00 bitrate=N/A speed=   0x    frame=   44 fps= 16 q=0.0 size=       0kB time=00:00:00.00 bitrate=N/A speed=   0x    frame=   47 fps=9.2 q=0.0 size=       0kB time=00:00:00.00 bitrate=N/A speed=   0x    frame=   48 fps=5.7 q=0.0 size=       0kB time=00:00:00.00 bitrate=N/A speed=   0x    frame=   49 fps=4.7 q=0.0 size=       0kB time=00:00:00.00 bitrate=N/A speed=   0x    frame=   54 fps=4.7 q=40.0 size=       1kB time=00:00:00.04 bitrate= 136.6kbits/s speed=0.00377x    frame=   59 fps=4.9 q=49.0 size=       1kB time=00:00:00.25 bitrate=  23.4kbits/s speed=0.0209x    frame=   62 fps=4.9 q=48.0 size=       1kB time=00:00:00.37 bitrate=  15.6kbits/s speed=0.03x    frame=   67 fps=5.1 q=48.0 size=       1kB time=00:00:00.58 bitrate=  10.1kbits/s speed=0.0448x    frame=   72 fps=5.3 q=48.0 size=       1kB time=00:00:00.79 bitrate=   7.4kbits/s speed=0.0586x    frame=   77 fps=5.5 q=48.0 size=       1kB time=00:00:01.00 bitrate=   5.9kbits/s speed=0.0711x    frame=   82 fps=5.6 q=47.0 size=       1kB time=00:00:01.20 bitrate=   4.9kbits/s speed=0.0828x    frame=   87 fps=5.7 q=47.0 size=       1kB time=00:00:01.41 bitrate=   4.1kbits/s speed=0.0932x    frame=   93 fps=5.9 q=46.0 size=       1kB time=00:00:01.66 bitrate=   3.5kbits/s speed=0.106x    frame=   99 fps=6.1 q=46.0 size=       1kB time=00:00:01.91 bitrate=   3.1kbits/s speed=0.117x    frame=  105 fps=6.2 q=46.0 size=       1kB time=00:00:02.16 bitrate=   2.7kbits/s speed=0.128x    frame=  109 fps=6.2 q=46.0 size=       1kB time=00:00:02.33 bitrate=   2.5kbits/s speed=0.133x    frame=  114 fps=6.3 q=45.0 size=       1kB time=00:00:02.54 bitrate=   2.3kbits/s speed=0.14x    frame=  117 fps=6.3 q=45.0 size=       1kB time=00:00:02.66 bitrate=   2.2kbits/s speed=0.143x    frame=  122 fps=6.4 q=45.0 size=       1kB time=00:00:02.87 bitrate=   2.0kbits/s speed=0.15x    frame=  126 fps=6.4 q=45.0 size=       1kB time=00:00:03.04 bitrate=   1.9kbits/s speed=0.153x    frame=  132 fps=6.4 q=45.0 size=       1kB time=00:00:03.29 bitrate=   1.8kbits/s speed=0.161x    frame=  136 fps=6.4 q=45.0 size=       1kB time=00:00:03.45 bitrate=   1.7kbits/s speed=0.164x    frame=  141 fps=6.5 q=45.0 size=       1kB time=00:00:03.66 bitrate=   1.6kbits/s speed=0.169x    frame=  146 fps=6.6 q=45.0 size=       1kB time=00:00:03.87 bitrate=   1.5kbits/s speed=0.174x    frame=  152 fps=6.7 q=45.0 size=    2807kB time=00:00:04.12 bitrate=5573.3kbits/s speed=0.181x    frame=  157 fps=6.7 q=44.0 size=    2807kB time=00:00:04.33 bitrate=5305.8kbits/s speed=0.186x    frame=  162 fps=6.8 q=44.0 size=    2807kB time=00:00:04.54 bitrate=5061.7kbits/s speed=0.19x    frame=  169 fps=6.9 q=44.0 size=    2807kB time=00:00:04.83 bitrate=4757.0kbits/s speed=0.198x    frame=  173 fps=6.9 q=44.0 size=    2807kB time=00:00:05.00 bitrate=4598.1kbits/s speed= 0.2x    frame=  178 fps=7.0 q=44.0 size=    2807kB time=00:00:05.20 bitrate=4414.5kbits/s speed=0.205x    frame=  183 fps=7.0 q=44.0 size=    2807kB time=00:00:05.41 bitrate=4244.2kbits/s speed=0.208x    frame=  187 fps=7.1 q=44.0 size=    2807kB time=00:00:05.58 bitrate=4118.1kbits/s speed=0.211x    frame=  193 fps=7.1 q=44.0 size=    2807kB time=00:00:05.83 bitrate=3941.6kbits/s speed=0.216x    frame=  199 fps=7.2 q=44.0 size=    2807kB time=00:00:06.08 bitrate=3779.6kbits/s speed=0.221x    frame=  204 fps=7.3 q=44.0 size=    2807kB time=00:00:06.29 bitrate=3654.1kbits/s speed=0.224x    frame=  211 fps=7.4 q=44.0 size=    4161kB time=00:00:06.58 bitrate=5177.5kbits/s speed=0.229x    frame=  217 fps=7.4 q=44.0 size=    4161kB time=00:00:06.83 bitrate=4988.1kbits/s speed=0.233x    frame=  222 fps=7.4 q=43.0 size=    4161kB time=00:00:07.04 bitrate=4840.1kbits/s speed=0.236x    frame=  227 fps=7.4 q=43.0 size=    4161kB time=00:00:07.25 bitrate=4701.2kbits/s speed=0.238x    frame=  233 fps=7.5 q=43.0 size=    4161kB time=00:00:07.50 bitrate=4544.5kbits/s speed=0.242x    frame=  240 fps=7.6 q=43.0 size=    4718kB time=00:00:07.79 bitrate=4959.9kbits/s speed=0.247x    frame=  247 fps=7.7 q=43.0 size=    4718kB time=00:00:08.08 bitrate=4781.3kbits/s speed=0.251x    frame=  252 fps=7.7 q=43.0 size=    4718kB time=00:00:08.29 bitrate=4660.8kbits/s speed=0.253x    frame=  259 fps=7.7 q=43.0 size=    4718kB time=00:00:08.58 bitrate=4502.8kbits/s speed=0.256x    frame=  266 fps=7.8 q=43.0 size=    4718kB time=00:00:08.87 bitrate=4354.7kbits/s speed=0.26x    frame=  272 fps=7.8 q=42.0 size=    4718kB time=00:00:09.12 bitrate=4235.4kbits/s speed=0.263x    frame=  279 fps=7.9 q=42.0 size=    4718kB time=00:00:09.41 bitrate=4104.1kbits/s speed=0.268x    frame=  284 fps=7.9 q=42.0 size=    4718kB time=00:00:09.62 bitrate=4015.4kbits/s speed=0.269x    frame=  291 fps=8.0 q=42.0 size=    4718kB time=00:00:09.91 bitrate=3897.2kbits/s speed=0.273x    frame=  300 fps=8.1 q=42.0 size=    4718kB time=00:00:10.29 bitrate=3755.2kbits/s speed=0.278x    frame=  307 fps=8.2 q=41.0 size=    4718kB time=00:00:10.58 bitrate=3652.0kbits/s speed=0.282x    frame=  312 fps=8.1 q=41.0 size=    4718kB time=00:00:10.79 bitrate=3581.2kbits/s speed=0.28x    frame=  322 fps=8.2 q=41.0 size=    6213kB time=00:00:11.20 bitrate=4540.7kbits/s speed=0.285x    frame=  330 fps=8.3 q=41.0 size=    6213kB time=00:00:11.54 bitrate=4409.3kbits/s speed=0.29x    frame=  338 fps=8.4 q=41.0 size=    6213kB time=00:00:11.87 bitrate=4285.7kbits/s speed=0.294x    frame=  344 fps=8.4 q=40.0 size=    6213kB time=00:00:12.12 bitrate=4197.3kbits/s speed=0.295x    frame=  354 fps=8.5 q=40.0 size=    6213kB time=00:00:12.54 bitrate=4057.8kbits/s speed= 0.3x    frame=  364 fps=8.6 q=39.0 size=    6213kB time=00:00:12.95 bitrate=3927.5kbits/s speed=0.306x    frame=  369 fps=8.6 q=39.0 size=    6213kB time=00:00:13.16 bitrate=3865.2kbits/s speed=0.308x    frame=  377 fps=8.7 q=39.0 size=    6213kB time=00:00:13.50 bitrate=3769.8kbits/s speed=0.312x    frame=  385 fps=8.8 q=38.0 size=    6213kB time=00:00:13.83 bitrate=3679.1kbits/s speed=0.315x    frame=  392 fps=8.8 q=38.0 size=    6213kB time=00:00:14.12 bitrate=3603.0kbits/s speed=0.318x    frame=  401 fps=8.9 q=38.0 size=    6213kB time=00:00:14.50 bitrate=3509.9kbits/s speed=0.322x    frame=  409 fps=9.0 q=37.0 size=    6213kB time=00:00:14.83 bitrate=3431.1kbits/s speed=0.326x    frame=  418 fps=9.0 q=37.0 size=    7634kB time=00:00:15.20 bitrate=4111.7kbits/s speed=0.328x    frame=  426 fps=9.1 q=37.0 size=    7634kB time=00:00:15.54 bitrate=4023.3kbits/s speed=0.331x    frame=  430 fps=9.0 q=37.0 size=    7634kB time=00:00:15.70 bitrate=3980.8kbits/s speed=0.33x    frame=  438 fps=9.1 q=37.0 size=    7634kB time=00:00:16.04 bitrate=3897.9kbits/s speed=0.333x    frame=  445 fps=9.1 q=37.0 size=    7634kB time=00:00:16.33 bitrate=3828.5kbits/s speed=0.335x    frame=  451 fps=9.1 q=37.0 size=    7634kB time=00:00:16.58 bitrate=3770.8kbits/s speed=0.335x    frame=  457 fps=9.1 q=37.0 size=    7634kB time=00:00:16.83 bitrate=3714.8kbits/s speed=0.336x    frame=  464 fps=9.2 q=34.0 size=    7634kB time=00:00:17.12 bitrate=3651.4kbits/s speed=0.338x    frame=  473 fps=9.2 q=37.0 size=    8914kB time=00:00:17.50 bitrate=4172.3kbits/s speed=0.342x    frame=  477 fps=9.2 q=37.0 size=    8914kB time=00:00:17.66 bitrate=4132.9kbits/s speed=0.34x    frame=  483 fps=9.2 q=37.0 size=    8914kB time=00:00:17.91 bitrate=4075.2kbits/s speed=0.341x    frame=  491 fps=9.3 q=37.0 size=    8914kB time=00:00:18.25 bitrate=4000.9kbits/s speed=0.344x    frame=  499 fps=9.3 q=37.0 size=    8914kB time=00:00:18.58 bitrate=3929.2kbits/s speed=0.346x    frame=  500 fps=8.8 q=-1.0 Lsize=   10686kB time=00:00:20.70 bitrate=4227.1kbits/s speed=0.365x    
video:10681kB audio:0kB subtitle:0kB other streams:0kB global headers:0kB muxing overhead: 0.043895%
bench: utime=175.396s
bench: maxrss=1570600kB
[libx264 @ 0x409a1c0] frame I:8     Avg QP:32.39  size: 76307
[libx264 @ 0x409a1c0] frame P:269   Avg QP:37.68  size: 26678
[libx264 @ 0x409a1c0] frame B:223   Avg QP:36.00  size: 14126
[libx264 @ 0x409a1c0] consecutive B-frames: 37.0%  8.4%  6.6% 48.0%
[libx264 @ 0x409a1c0] mb I  I16..4: 27.6% 70.4%  1.9%
[libx264 @ 0x409a1c0] mb P  I16..4: 15.7% 25.0%  0.2%  P16..4: 14.2%  0.9%  0.3%  0.0%  0.0%    skip:43.7%
[libx264 @ 0x409a1c0] mb B  I16..4:  1.1%  1.6%  0.1%  B16..8: 24.0%  0.9%  0.1%  direct: 0.3%  skip:72.0%  L0:40.6% L1:58.4% BI: 0.9%
[libx264 @ 0x409a1c0] final ratefactor: 34.26
[libx264 @ 0x409a1c0] 8x8 transform intra:61.7% inter:94.5%
[libx264 @ 0x409a1c0] coded y,uvDC,uvAC intra: 8.3% 17.6% 0.5% inter: 2.4% 2.0% 0.0%
[libx264 @ 0x409a1c0] i16 v,h,dc,p: 33% 36%  6% 25%
[libx264 @ 0x409a1c0] i8 v,h,dc,ddl,ddr,vr,hd,vl,hu: 21% 11% 61%  1%  1%  1%  2%  1%  1%
[libx264 @ 0x409a1c0] i4 v,h,dc,ddl,ddr,vr,hd,vl,hu: 20% 27% 11%  5%  9%  7% 10%  4%  5%
[libx264 @ 0x409a1c0] i8c dc,h,v,p: 88%  6%  5%  0%
[libx264 @ 0x409a1c0] Weighted P-Frames: Y:1.1% UV:0.7%
[libx264 @ 0x409a1c0] ref P L0: 69.1% 12.5% 13.5%  4.9%  0.0%
[libx264 @ 0x409a1c0] ref B L0: 91.0%  7.5%  1.5%
[libx264 @ 0x409a1c0] ref B L1: 97.9%  2.1%
[libx264 @ 0x409a1c0] kb/s:4199.75
